<svg width="20" height="19" viewBox="0 0 20 19" fill="none" xmlns="http://www.w3.org/2000/svg">
<circle cx="9.5" cy="9.5" r="9.5" fill="#EDBECE"/>
<path d="M9.79 12.31H8.584L8.242 7V3.4H10.132V7L9.79 12.31ZM9.178 16.198C8.854 16.198 8.578 16.084 8.35 15.856C8.122 15.628 8.008 15.352 8.008 15.028C8.008 14.704 8.122 14.428 8.35 14.2C8.578 13.972 8.854 13.858 9.178 13.858C9.514 13.858 9.79 13.972 10.006 14.2C10.234 14.428 10.348 14.704 10.348 15.028C10.348 15.352 10.234 15.628 10.006 15.856C9.79 16.084 9.514 16.198 9.178 16.198Z" fill="white"/>
</svg>
