<svg width="412" height="232" viewBox="0 0 412 232" fill="none" xmlns="http://www.w3.org/2000/svg">
<path d="M1.92553e-05 32.5294H0.500019L0.500018 30C0.500017 29.22 0.530277 28.4472 0.589674 27.6826L0.0911755 27.6439C0.214542 26.0559 0.46155 24.5026 0.822583 22.9936L1.30886 23.11C1.67162 21.5938 2.15145 20.1231 2.73829 18.7079L2.27643 18.5164C2.88162 17.057 3.59869 15.6557 4.41694 14.3232L4.84302 14.5849C5.65367 13.2648 6.56536 12.0133 7.56733 10.8412L7.18728 10.5163C8.20846 9.32181 9.32183 8.20845 10.5164 7.18727L10.8413 7.56732C12.0133 6.56535 13.2648 5.65366 14.5849 4.84301L14.3232 4.41693C15.6557 3.59868 17.057 2.88161 18.5164 2.27642L18.7079 2.73828C20.1231 2.15144 21.5938 1.67161 23.11 1.30885L22.9936 0.822575C24.5026 0.461541 26.0559 0.214533 27.6439 0.0911669L27.6827 0.589665C28.4472 0.530268 29.22 0.500008 30 0.500008L32.498 0.500009V9.16445e-06L37.4943 1.05734e-05V0.500011L42.4905 0.500012V1.19823e-05L47.4867 1.33913e-05L47.4867 0.500013L52.483 0.500015V1.48002e-05L57.4792 1.62092e-05V0.500016L62.4755 0.500018V1.76181e-05L67.4717 1.90271e-05V0.500019L72.468 0.50002V2.0436e-05L77.4642 2.18449e-05V0.500022L82.4605 0.500023V2.32539e-05L87.4567 2.46628e-05V0.500025L92.453 0.500026V2.60718e-05L97.4492 2.74807e-05V0.500027L102.445 0.500029V2.88896e-05L107.442 3.02986e-05V0.50003L112.438 0.500032L112.438 3.17075e-05L117.434 3.31165e-05V0.500033L122.43 0.500035V3.45254e-05L127.427 3.59343e-05V0.500036L132.423 0.500037V3.73433e-05L137.419 3.87522e-05V0.500039L142.415 0.50004V4.01612e-05L147.412 4.15701e-05V0.500042L152.408 0.500043V4.2979e-05L157.404 4.4388e-05V0.500044L162.4 0.500046V4.57969e-05L167.396 4.72059e-05V0.500047L172.393 0.500049V4.86148e-05L177.389 5.00237e-05V0.50005L182.385 0.500051V5.14327e-05L187.381 5.28416e-05V0.500053L192.378 0.500054V5.42506e-05L197.374 5.56595e-05V0.500056L202.37 0.500057V5.70684e-05L207.366 5.84774e-05V0.500058L212.363 0.50006V5.98863e-05L217.359 6.12952e-05V0.500061L222.355 0.500063V6.27042e-05L227.351 6.41131e-05V0.500064L232.347 0.500066V6.55221e-05L237.344 6.6931e-05V0.500067L242.34 0.500068V6.83399e-05L247.336 6.97489e-05V0.50007L252.332 0.500071V7.11578e-05L257.329 7.25668e-05V0.500073L262.325 0.500074V7.39757e-05L267.321 7.53846e-05V0.500075L272.317 0.500077V7.67936e-05L277.314 7.82025e-05V0.500078L282.31 0.50008V7.96115e-05L287.306 8.10204e-05V0.500081L292.302 0.500082V8.24293e-05L297.298 8.38383e-05V0.500084L302.295 0.500085V8.52472e-05L307.291 8.66562e-05V0.500087L312.287 0.500088V8.80651e-05L317.283 8.9474e-05V0.500089L322.28 0.500091V9.0883e-05L327.276 9.22919e-05V0.500092L332.272 0.500094V9.37008e-05L337.268 9.51098e-05V0.500095L342.265 0.500096V9.65187e-05L347.261 9.79277e-05V0.500098L349.759 0.500099C350.722 0.500099 351.67 0.562662 352.599 0.683888L352.664 0.188088C354.625 0.443936 356.506 0.955334 358.273 1.68777L358.081 2.14964C359.848 2.88248 361.498 3.84183 362.994 4.99161L363.299 4.59515C364.84 5.77917 366.221 7.16045 367.405 8.70121L367.009 9.00588C368.158 10.5021 369.118 12.1519 369.851 13.9192L370.312 13.7277C371.045 15.4939 371.556 17.375 371.812 19.3364L371.316 19.4011C371.438 20.3304 371.5 21.2785 371.5 22.2413V22.8016H372V23.9222H371.5V24.4825C371.5 25.3896 371.559 26.2831 371.673 27.1594L372.169 27.0947C372.399 28.8585 372.859 30.55 373.518 32.1383L373.056 32.3298C373.747 33.9967 374.652 35.5524 375.736 36.9629L376.132 36.6582C377.197 38.0437 378.439 39.2858 379.824 40.3505L379.52 40.747C380.93 41.8309 382.486 42.7356 384.153 43.4268L384.344 42.9649C385.933 43.6236 387.624 44.0834 389.388 44.3135L389.323 44.8093C390.2 44.9236 391.093 44.9826 392 44.9826C392.864 44.9826 393.714 45.0387 394.548 45.1474L394.612 44.6516C396.376 44.8817 398.068 45.3415 399.656 46.0002L399.464 46.462C401.049 47.1193 402.529 47.9798 403.871 49.011L404.176 48.6146C405.561 49.6793 406.803 50.9214 407.868 52.3069L407.472 52.6115C408.503 53.9535 409.363 55.4333 410.021 57.0183L410.483 56.8268C411.141 58.4151 411.601 60.1066 411.831 61.8704L411.335 61.935C411.444 62.7686 411.5 63.6189 411.5 64.4826V66.9382H412V71.8495H411.5V76.7609H412V81.6722H411.5V86.5836H412V91.4949H411.5V96.4062H412V101.318H411.5V106.229H412V111.14H411.5V116.052H412V120.963H411.5V125.874H412V130.786H411.5V135.697H412V140.608H411.5V145.52H412V150.431H411.5V155.342H412V160.254H411.5V165.165H412V170.076H411.5V174.988H412V179.899H411.5V184.81H412V189.722H411.5V194.633H412V199.544H411.5V202C411.5 202.78 411.47 203.553 411.41 204.317L411.909 204.356C411.786 205.944 411.539 207.497 411.178 209.006L410.691 208.89C410.329 210.406 409.849 211.877 409.262 213.292L409.724 213.484C409.118 214.943 408.401 216.344 407.583 217.677L407.157 217.415C406.346 218.735 405.435 219.987 404.433 221.159L404.813 221.484C403.792 222.678 402.678 223.792 401.484 224.813L401.159 224.433C399.987 225.435 398.735 226.346 397.415 227.157L397.677 227.583C396.344 228.401 394.943 229.118 393.484 229.724L393.292 229.262C391.877 229.849 390.406 230.328 388.89 230.691L389.007 231.177C387.498 231.538 385.944 231.785 384.356 231.909L384.318 231.41C383.553 231.47 382.78 231.5 382 231.5H379.486V232H374.457V231.5H369.428V232H364.4V231.5H359.371V232H354.343V231.5L349.314 231.5V232H344.286V231.5H339.257V232H334.228V231.5H329.2V232H324.171V231.5H319.143V232H314.114V231.5H309.086V232H304.057V231.5H299.029V232L294 232V231.5H288.971V232H283.943V231.5H278.914V232H273.886V231.5H268.857V232H263.829V231.5H258.8V232H253.771V231.5H248.743V232H243.714V231.5H238.686V232L233.657 232V231.5H228.629V232H223.6V231.5H218.571V232H213.543V231.5H208.514V232H203.486V231.5H198.457V232H193.429V231.5H188.4V232H183.372V231.5H178.343V232L173.314 232V231.5H168.286V232H163.257V231.5H158.229V232H153.2V231.5H148.172V232H143.143V231.5H138.114V232H133.086V231.5H128.057V232H123.029V231.5H118V232L112.972 232V231.5H107.943V232H102.914V231.5H97.8858V232H92.8573V231.5H87.8287V232H82.8001V231.5H77.7715V232H72.743V231.5H67.7144V232H62.6858V231.5L57.6573 231.5V232H52.6287V231.5H47.6001V232H42.5715V231.5H37.543V232H32.5144V231.5H30.0001C29.2201 231.5 28.4473 231.47 27.6827 231.41L27.644 231.909C26.056 231.785 24.5027 231.538 22.9937 231.177L23.1101 230.691C21.5939 230.328 20.1232 229.848 18.708 229.262L18.5165 229.723C17.0571 229.118 15.6558 228.401 14.3233 227.583L14.585 227.157C13.2649 226.346 12.0134 225.435 10.8414 224.433L10.5165 224.813C9.32193 223.791 8.20857 222.678 7.18739 221.484L7.56745 221.159C6.56547 219.987 5.65378 218.735 4.84313 217.415L4.41706 217.677C3.5988 216.344 2.88173 214.943 2.27654 213.484L2.7384 213.292C2.15156 211.877 1.67173 210.406 1.30897 208.89L0.822692 209.006C0.461657 207.497 0.214648 205.944 0.0912798 204.356L0.589778 204.317C0.530381 203.553 0.50012 202.78 0.50012 202L0.500118 199.471H0.000118074L0.000115079 194.412H0.500115L0.500112 189.353H0.000112085L0.00010909 184.294H0.500109L0.500106 179.235H0.000106096L0.000103101 174.176H0.500103L0.5001 169.118H0.000100107L9.71123e-05 164.059H0.500097L0.500094 159H9.41178e-05L9.11233e-05 153.941H0.500091L0.500088 148.882H8.81288e-05L8.51343e-05 143.823H0.500085L0.500082 138.765H8.21398e-05L7.91453e-05 133.706H0.500079L0.500076 128.647H7.61508e-05L7.31563e-05 123.588H0.500073L0.50007 118.529H7.01618e-05L6.71673e-05 113.471H0.500067L0.500064 108.412H6.41728e-05L6.11783e-05 103.353H0.500061L0.500058 98.2941H5.81838e-05L5.51893e-05 93.2353H0.500055L0.500052 88.1764H5.21948e-05L4.92003e-05 83.1176H0.500049L0.500046 78.0588H4.62058e-05L4.32113e-05 73H0.500043L0.50004 67.9412H4.02168e-05L3.72223e-05 62.8824H0.500037L0.500034 57.8235H3.42278e-05L3.12333e-05 52.7647H0.500031L0.500028 47.7059L2.82388e-05 47.7059L2.52443e-05 42.6471H0.500025L0.500022 37.5882H2.22498e-05L1.92553e-05 32.5294Z" stroke="#898989" stroke-opacity="0.5" stroke-dasharray="5 5"/>
</svg>
