<svg width="425" height="759" viewBox="0 0 425 759" fill="none" xmlns="http://www.w3.org/2000/svg">
<path d="M40.5 22.4947C40.5 10.0712 50.5712 0 62.9947 0H364.505C376.929 0 387 10.0712 387 22.4947V25.9894C387 36.4828 395.507 44.9894 406 44.9894C416.493 44.9894 425 53.496 425 63.9894V728.5C425 745.069 411.569 758.5 395 758.5H335C319.536 758.5 307 745.964 307 730.5C307 715.036 294.464 702.5 279 702.5H143.5C128.036 702.5 115.5 715.036 115.5 730.5C115.5 745.964 102.964 758.5 87.5 758.5H30C13.4315 758.5 0 745.069 0 728.5V65.2394C0 54.0556 9.06623 44.9894 20.25 44.9894C31.4338 44.9894 40.5 35.9231 40.5 24.7394V22.4947Z" fill="white"/>
</svg>
