<svg width="170" height="45" viewBox="0 0 170 45" fill="none" xmlns="http://www.w3.org/2000/svg">
<path fill-rule="evenodd" clip-rule="evenodd" d="M15.6484 39.729C16.5932 42.5376 19.3094 44.644 22.4981 44.644C26.4543 44.644 29.702 41.4259 29.702 37.5056V29.4896H37.7916C41.7479 29.4896 44.9955 26.2715 44.9955 22.3513C44.9955 19.1916 42.9288 16.5002 40.0354 15.564H29.702H29.5839C21.9076 15.564 15.6484 21.7661 15.6484 29.3726V29.4896V39.729Z" fill="#EDBECE"/>
<path d="M55 14V28.4522H67.9906V25.4682H58.72V22.3086H66.9868V19.383H58.72V16.9255H67.9906V14H55Z" fill="#8EACBD"/>
<path d="M79.9189 23.1277C79.9189 25 78.6791 26.2288 76.7306 26.2288C74.7819 26.2288 73.5419 25.0586 73.5419 23.1277C73.5419 21.2554 74.7819 20.0266 76.7306 20.0266C78.6791 20.0851 79.9189 21.3139 79.9189 23.1277ZM79.9189 14V18.9149C79.0925 18.0373 77.8522 17.5106 76.14 17.5106C72.4199 17.5106 69.8809 19.7926 69.8809 23.1862C69.8809 26.5214 72.4199 28.8618 76.0809 28.8618C77.7344 28.8618 78.9742 28.4522 79.9189 27.516V28.5107H83.2851V14H79.9189Z" fill="#8EACBD"/>
<path d="M86 17.686V23.6542C86 26.8723 87.0629 28.8616 90.6652 28.8616C92.3184 28.8616 93.7357 28.1009 94.9163 26.8723V28.5106H98.282V17.686H94.9163V23.1275C94.9163 25.0584 93.7357 26.2871 91.7867 26.2871C89.8383 26.2871 89.3657 25.351 89.3657 23.186V17.686H86Z" fill="#8EACBD"/>
<path d="M100.94 14V16.9255H110.034L100.527 25.3511V28.4522H115.407V25.4682H105.665L115.289 16.9841V14H100.94Z" fill="#1C597B"/>
<path d="M127.038 23.1277C127.038 25 125.798 26.2288 123.85 26.2288C121.901 26.2288 120.661 25.0586 120.661 23.1277C120.661 21.2554 121.901 20.0266 123.85 20.0266C125.798 20.0266 127.038 21.3139 127.038 23.1277ZM127.038 14V18.9149C126.212 18.0373 124.971 17.5106 123.259 17.5106C119.539 17.5106 117 19.7926 117 23.1862C117 26.5214 119.539 28.8618 123.2 28.8618C124.853 28.8618 126.093 28.4522 127.038 27.516V28.5107H130.404V14H127.038Z" fill="#1C597B"/>
<path d="M136.545 17.6861H133.18V28.5106H136.545V23.6542C136.545 21.4893 137.726 20.2021 139.734 20.2021C140.088 20.2021 140.62 20.2021 140.797 20.2606V17.452C140.56 17.3936 140.088 17.3936 139.852 17.3936C138.612 17.3936 137.549 17.9787 136.545 19.2074V17.6861Z" fill="#1C597B"/>
<path d="M151.367 23.2449V23.596C151.367 25.2928 149.832 26.5215 147.529 26.5215C146.407 26.5215 145.698 25.9364 145.698 25.1173C145.698 24.0641 146.703 23.9471 148.592 23.713C149.773 23.713 150.659 23.6545 151.367 23.2449ZM146.407 21.2556C146.407 19.9683 147.234 19.4417 148.887 19.4417C150.541 19.4417 151.427 19.8513 151.427 20.6705C151.427 21.8406 149.891 21.7822 147.116 22.0162C143.632 22.3088 141.92 23.0694 141.92 25.2928C141.92 27.3992 143.691 28.862 146.761 28.862C148.651 28.862 150.068 28.3939 151.308 27.2822L151.486 28.4524H155.206V28.2184C154.792 27.9258 154.674 27.4577 154.674 26.6971V21.3141C154.674 17.9204 152.017 17.2183 149.065 17.2183C144.99 17.2183 142.865 18.6225 142.865 21.197H146.407V21.2556Z" fill="#1C597B"/>
<path d="M155.914 17.686L160.992 28.452H164.181L169.496 17.686H165.834L162.587 24.7074L159.575 17.686H155.914Z" fill="#1C597B"/>
<path fill-rule="evenodd" clip-rule="evenodd" d="M22.4975 0C26.4537 0 29.7013 3.21811 29.7013 7.13837V15.1543V29.431H15.2935H7.20393C3.24767 29.431 0 26.2129 0 22.2927C0 18.3724 3.24767 15.1543 7.20393 15.1543H15.2935V7.13837C15.2935 3.21811 18.5412 0 22.4975 0Z" fill="#8EACBD"/>
<path fill-rule="evenodd" clip-rule="evenodd" d="M29.6425 15.564C21.9662 15.564 15.707 21.7661 15.707 29.3726V29.4896H29.7605V15.564H29.6425Z" fill="#1C597B"/>
</svg>
