<svg width="19" height="27" viewBox="0 0 19 27" fill="none" xmlns="http://www.w3.org/2000/svg">
<path d="M10.0756 4.124H13.2796V5.276H10.0756V8.48H8.92365V5.276H5.71965V4.124H8.92365V0.92H10.0756V4.124ZM8.23508 14.588L5.30108 18.638C6.29708 18.758 7.12508 19.148 7.78508 19.808C8.44508 20.432 8.77508 21.278 8.77508 22.346C8.77508 23.534 8.36108 24.482 7.53308 25.19C6.72908 25.874 5.73308 26.216 4.54508 26.216C3.59708 26.216 2.75708 26 2.02508 25.568C1.29308 25.124 0.783078 24.506 0.495078 23.714L1.53908 23.102C1.74308 23.714 2.10308 24.182 2.61908 24.506C3.14708 24.83 3.78908 24.992 4.54508 24.992C5.43308 24.992 6.14708 24.758 6.68708 24.29C7.23908 23.81 7.51508 23.162 7.51508 22.346C7.51508 21.53 7.23908 20.888 6.68708 20.42C6.14708 19.94 5.43308 19.7 4.54508 19.7V19.682L4.52708 19.7H4.18508L3.64508 18.872L6.77708 14.588H0.855078V13.4H8.23508V14.588ZM11.9702 18.476H14.0942C15.2822 18.476 16.2782 18.824 17.0822 19.52C17.9102 20.204 18.3242 21.146 18.3242 22.346C18.3242 23.534 17.9102 24.482 17.0822 25.19C16.2782 25.874 15.2822 26.216 14.0942 26.216C13.1222 26.216 12.2642 25.982 11.5202 25.514C10.7882 25.034 10.2962 24.374 10.0442 23.534L11.1062 22.922C11.2862 23.582 11.6402 24.092 12.1682 24.452C12.6962 24.812 13.3382 24.992 14.0942 24.992C14.9822 24.992 15.6962 24.758 16.2362 24.29C16.7882 23.81 17.0642 23.162 17.0642 22.346C17.0642 21.53 16.7882 20.888 16.2362 20.42C15.6962 19.94 14.9822 19.7 14.0942 19.7H10.6742L11.1242 13.4H17.8742V14.588H12.2402L11.9702 18.476Z" fill="white"/>
</svg>
