<svg width="28" height="28" viewBox="0 0 29 29" fill="none" xmlns="http://www.w3.org/2000/svg">
<path d="M14 0.71875C11.6748 0.719353 9.39054 1.33022 7.37543 2.4903C5.36033 3.65037 3.685 5.31902 2.51688 7.32948C1.34876 9.33993 0.728765 11.6218 0.71887 13.9469C0.708975 16.2721 1.30952 18.5591 2.46049 20.5794L1.26459 24.7652C1.18653 25.0385 1.18296 25.3277 1.25426 25.6028C1.32556 25.8779 1.46914 26.129 1.67012 26.3299C1.87109 26.5309 2.12215 26.6745 2.39728 26.7457C2.67241 26.817 2.96159 26.8134 3.23487 26.7353L7.42066 25.5395C9.18786 26.547 11.1629 27.1352 13.1934 27.2586C15.2238 27.382 17.2555 27.0374 19.1317 26.2513C21.008 25.4652 22.6785 24.2586 24.0146 22.7247C25.3507 21.1908 26.3166 19.3704 26.8378 17.4041C27.3591 15.4378 27.4217 13.378 27.0208 11.3837C26.62 9.38933 25.7664 7.5137 24.5259 5.90146C23.2855 4.28922 21.6913 2.98345 19.8663 2.08486C18.0413 1.18628 16.0342 0.718889 14 0.71875ZM14 26.2188C11.8055 26.2202 9.65124 25.6299 7.7641 24.5098C7.70189 24.4728 7.63276 24.4489 7.56096 24.4395C7.48916 24.4302 7.41621 24.4357 7.3466 24.4556L2.94291 25.7138C2.85181 25.7399 2.75541 25.741 2.66371 25.7173C2.572 25.6935 2.48832 25.6456 2.42133 25.5786C2.35435 25.5116 2.3065 25.4279 2.28275 25.3362C2.25899 25.2445 2.2602 25.1481 2.28624 25.057L3.54432 20.6535C3.5642 20.5839 3.56965 20.5109 3.56033 20.4391C3.551 20.3673 3.52711 20.2982 3.49011 20.236C2.11386 17.9173 1.5431 15.2086 1.86674 12.5318C2.19039 9.85491 3.39027 7.36027 5.27947 5.43644C7.16867 3.5126 9.64111 2.26761 12.3116 1.89539C14.9821 1.52317 17.7008 2.04463 20.0441 3.37854C22.3873 4.71245 24.2236 6.78391 25.2669 9.27023C26.3102 11.7565 26.5019 14.5181 25.8121 17.1247C25.1224 19.7313 23.5899 22.0366 21.4534 23.6815C19.3169 25.3264 16.6963 26.2184 14 26.2188ZM20.7085 16.4627L17.9912 14.91C17.7454 14.7697 17.4666 14.6973 17.1836 14.7003C16.9005 14.7033 16.6234 14.7816 16.3806 14.9271L14.5469 16.0273C13.4368 15.4649 12.5351 14.5631 11.9727 13.4531L13.0728 11.6194C13.2183 11.3766 13.2966 11.0994 13.2996 10.8164C13.3026 10.5333 13.2303 10.2546 13.09 10.0087L11.5373 7.29141C11.4105 7.07018 11.2276 6.88631 11.0071 6.75834C10.7865 6.63036 10.5362 6.56281 10.2812 6.5625C9.15684 6.56278 8.07839 7.00846 7.28188 7.80201C6.48536 8.59556 6.03566 9.67234 6.03119 10.7967C6.02912 12.2631 6.31616 13.7154 6.87588 15.0708C7.4356 16.4261 8.25703 17.6579 9.29317 18.6955C10.3293 19.7331 11.5598 20.5563 12.9144 21.1179C14.2689 21.6796 15.7209 21.9687 17.1873 21.9688H17.2033C18.3276 21.9643 19.4044 21.5146 20.1979 20.7181C20.9915 19.9215 21.4371 18.8431 21.4374 17.7188C21.4371 17.4638 21.3696 17.2134 21.2416 16.9929C21.1136 16.7723 20.9298 16.5895 20.7085 16.4627ZM17.2018 20.9062H17.1874C15.8606 20.9062 14.5469 20.6447 13.3214 20.1365C12.0958 19.6284 10.9825 18.8836 10.045 17.9448C9.10752 17.006 8.36433 15.8916 7.85791 14.6653C7.3515 13.439 7.09181 12.125 7.09369 10.7982C7.09735 9.9553 7.43481 9.14815 8.0322 8.55343C8.62958 7.95872 9.43824 7.62489 10.2812 7.625C10.3489 7.62508 10.4154 7.64302 10.4739 7.67699C10.5325 7.71096 10.5811 7.75978 10.6148 7.81851L12.1675 10.536C12.2142 10.6179 12.2383 10.7108 12.2373 10.8052C12.2363 10.8995 12.2102 10.9919 12.1618 11.0728L10.9148 13.1511C10.8707 13.2246 10.845 13.3076 10.84 13.3931C10.8349 13.4787 10.8506 13.5642 10.8858 13.6423C11.5792 15.1855 12.8145 16.4208 14.3577 17.1142C14.4359 17.1494 14.5214 17.1651 14.6069 17.1601C14.6924 17.155 14.7755 17.1293 14.8489 17.0852L16.9271 15.8382C17.0081 15.7897 17.1005 15.7636 17.1948 15.7626C17.2892 15.7616 17.3821 15.7857 17.4641 15.8324L20.1815 17.3853C20.2402 17.4189 20.289 17.4675 20.323 17.526C20.3569 17.5846 20.3749 17.6511 20.3749 17.7188C20.375 18.5617 20.0412 19.3703 19.4465 19.9677C18.8518 20.5651 18.0447 20.9026 17.2018 20.9062Z" fill="#1C597B"/>
</svg>
